<?xml version="1.0" encoding="utf-8"?>
<svg id="master-artboard" xmlns="http://www.w3.org/2000/svg" viewBox="0 0 500 500" width="500px" height="500px"><g transform="matrix(0.3571428353445871, 0, 0, 0.3571428353445871, 0.00000997499591903761, 75.00004119873046)"><path d="M 0 0 H 1400 V 980 H 0 V 0 Z" class="st0" style="fill: rgb(108, 177, 190);"/><g>
	<g>
		<path class="st1" d="M1252.1,525.5h-127.9c-9.9,0-18-8.1-18-18v0c0-9.9,8.1-18,18-18h127.9c9.9,0,18,8.1,18,18v0&#10;&#9;&#9;&#9;C1270.1,517.5,1262,525.5,1252.1,525.5z" style="fill: rgb(121, 200, 211);"/>
		<path d="M 1327 507.5 A 18 18 0 0 1 1309 525.5 A 18 18 0 0 1 1291 507.5 A 18 18 0 0 1 1309 489.5 A 18 18 0 0 1 1327 507.5 Z" class="st1" style="fill: rgb(121, 200, 211);"/>
	</g>
	<g>
		<path class="st1" d="M446.2,411.8h-96.7c-9.9,0-18-8.1-18-18v0c0-9.9,8.1-18,18-18h96.7c9.9,0,18,8.1,18,18v0&#10;&#9;&#9;&#9;C464.2,403.7,456.1,411.8,446.2,411.8z" style="fill: rgb(121, 200, 211);"/>
		<path d="M 521.100006 393.799988 A 18 18 0 0 1 503.100006 411.799988 A 18 18 0 0 1 485.100006 393.799988 A 18 18 0 0 1 503.100006 375.799988 A 18 18 0 0 1 521.100006 393.799988 Z" class="st1" style="fill: rgb(121, 200, 211);"/>
	</g>
	<g>
		<path class="st1" d="M147.9,231.9h127.9c9.9,0,18-8.1,18-18v0c0-9.9-8.1-18-18-18H147.9c-9.9,0-18,8.1-18,18v0&#10;&#9;&#9;&#9;C129.9,223.8,138,231.9,147.9,231.9z" style="fill: rgb(121, 200, 211);"/>
		<path d="M 109 213.899994 A 18 18 0 0 1 91 231.899994 A 18 18 0 0 1 73 213.899994 A 18 18 0 0 1 91 195.899994 A 18 18 0 0 1 109 213.899994 Z" class="st1" style="fill: rgb(121, 200, 211);"/>
	</g>
	<g>
		<path class="st1" d="M1047.2,483.4H801.1c-9.9,0-18-8.1-18-18v0c0-9.9,8.1-18,18-18h246.2c9.9,0,18,8.1,18,18v0&#10;&#9;&#9;&#9;C1065.2,475.4,1057.2,483.4,1047.2,483.4z" style="fill: rgb(121, 200, 211);"/>
		<path d="M 762.799988 465.399994 A 18 18 0 0 1 744.799988 483.399994 A 18 18 0 0 1 726.799988 465.399994 A 18 18 0 0 1 744.799988 447.399994 A 18 18 0 0 1 762.799988 465.399994 Z" class="st1" style="fill: rgb(121, 200, 211);"/>
	</g>
	<g>
		<g>
			<path class="st1" d="M342,512h66.3c9.9,0,18-8.1,18-18v0c0-9.9-8.1-18-18-18H342c-9.9,0-18,8.1-18,18v0&#10;&#9;&#9;&#9;&#9;C324,503.9,332.1,512,342,512z" style="fill: rgb(121, 200, 211);"/>
		</g>
		<g>
			<path class="st1" d="M158.4,512H290c9.9,0,18-8.1,18-18v0c0-9.9-8.1-18-18-18H158.4c-9.9,0-18,8.1-18,18v0&#10;&#9;&#9;&#9;&#9;C140.4,503.9,148.5,512,158.4,512z" style="fill: rgb(121, 200, 211);"/>
		</g>
	</g>
	<g>
		<g>
			<path class="st1" d="M1136.9,386.8h36.5c9.9,0,18-8.1,18-18v0c0-9.9-8.1-18-18-18h-36.5c-9.9,0-18,8.1-18,18v0&#10;&#9;&#9;&#9;&#9;C1118.9,378.8,1127,386.8,1136.9,386.8z" style="fill: rgb(121, 200, 211);"/>
		</g>
		<g>
			<path class="st1" d="M915.3,386.8h169.5c9.9,0,18-8.1,18-18v0c0-9.9-8.1-18-18-18H915.3c-9.9,0-18,8.1-18,18v0&#10;&#9;&#9;&#9;&#9;C897.3,378.8,905.4,386.8,915.3,386.8z" style="fill: rgb(121, 200, 211);"/>
		</g>
	</g>
	<g>
		<g>
			<path class="st1" d="M1082.2,129.1h-66.3c-9.9,0-18-8.1-18-18v0c0-9.9,8.1-18,18-18h66.3c9.9,0,18,8.1,18,18v0&#10;&#9;&#9;&#9;&#9;C1100.2,121,1092.1,129.1,1082.2,129.1z" style="fill: rgb(121, 200, 211);"/>
		</g>
		<g>
			<path class="st1" d="M1265.8,129.1h-131.5c-9.9,0-18-8.1-18-18v0c0-9.9,8.1-18,18-18h131.5c9.9,0,18,8.1,18,18v0&#10;&#9;&#9;&#9;&#9;C1283.8,121,1275.7,129.1,1265.8,129.1z" style="fill: rgb(121, 200, 211);"/>
		</g>
	</g>
</g><g>
	<g>
		<g>
			<path class="st2" d="M1100.3,330.2c-266.9-32.8-533.7,32.8-800.6,0c-5.4-69.8-10.9-139.5-16.3-209.3&#10;&#9;&#9;&#9;&#9;c277.8,34.2,555.5-34.2,833.3,0C1111.2,190.7,1105.7,260.5,1100.3,330.2z" style="fill: rgb(255, 255, 255);"/>
		</g>
		<g>
			<g>
				<path class="st3" d="M501.7,278.2c2.2,0.1,4.7,0.1,6.9,0.1c6.4-0.1,11.4-2.6,11.1-12.6c-1.1-32.7-2.3-65.3-3.4-98&#10;&#9;&#9;&#9;&#9;&#9;c6.8-0.2,13.7-0.4,20.5-0.6c1,32.2,2,64.4,3,96.5c0.8,25.7-12.6,32.8-27.7,33.1c-3.6,0.1-6.4,0.1-9.6-0.2&#10;&#9;&#9;&#9;&#9;&#9;C502.1,290.4,501.9,284.3,501.7,278.2z" style="fill: rgb(52, 127, 234);"/>
			</g>
			<g>
				<path class="st3" d="M549.9,197.5c-0.6-20.6,10-32.7,30.2-33.6c20.1-0.9,31.3,10.2,31.6,30.8c0.4,22.3,0.7,44.6,1.1,66.8&#10;&#9;&#9;&#9;&#9;&#9;c0.3,20.6-10.2,32.9-29.8,33.8c-19.6,0.9-30.6-10.5-31.2-31C551.2,242,550.5,219.7,549.9,197.5z M571.9,264.8&#10;&#9;&#9;&#9;&#9;&#9;c0.2,9.2,4.3,12.5,10.7,12.2c6.4-0.3,10.3-4,10.1-13.2c-0.5-23.1-1-46.3-1.4-69.4c-0.2-9.2-4.3-12.5-10.8-12.2&#10;&#9;&#9;&#9;&#9;&#9;c-6.5,0.3-10.5,4-10.3,13.1C570.8,218.5,571.4,241.6,571.9,264.8z" style="fill: rgb(52, 127, 234);"/>
			</g>
			<g>
				<path class="st3" d="M624.4,163.1c6.8-0.4,13.7-0.8,20.5-1.2c0.4,42.9,0.9,85.7,1.3,128.6c-6.7,0.4-13.3,0.8-20,1.1&#10;&#9;&#9;&#9;&#9;&#9;C625.6,248.8,625,205.9,624.4,163.1z" style="fill: rgb(52, 127, 234);"/>
			</g>
			<g>
				<path class="st3" d="M678.2,195.4c0.1,31.1,0.3,62.1,0.4,93.2c-6,0.4-12,0.7-18,1.1c-0.3-42.9-0.7-85.7-1-128.6&#10;&#9;&#9;&#9;&#9;&#9;c8.6-0.5,17.1-1,25.7-1.6c7.1,25.2,14.1,50.5,20.9,75.7c0-25.7,0.1-51.3,0.1-77c6.1-0.4,12.2-0.7,18.2-1.1&#10;&#9;&#9;&#9;&#9;&#9;c-0.2,42.9-0.4,85.8-0.6,128.7c-6.8,0.4-13.7,0.8-20.5,1.3C695.2,256.5,686.8,226,678.2,195.4z" style="fill: rgb(52, 127, 234);"/>
			</g>
			<g>
				<path class="st3" d="M787.7,153.5c-0.5,33.1-1.1,66.2-1.6,99.4c-0.2,9.2,3.8,12.3,10.2,12c6.4-0.3,10.5-3.8,10.6-13&#10;&#9;&#9;&#9;&#9;&#9;c0.7-33.1,1.4-66.2,2-99.4c6.5-0.3,12.9-0.6,19.4-0.9c-0.8,32.7-1.6,65.4-2.4,98.1c-0.5,20.6-11,32.8-30.6,33.8&#10;&#9;&#9;&#9;&#9;&#9;c-19.6,1-29.6-10.2-29.4-30.8c0.4-32.7,0.8-65.4,1.2-98C774,154.2,780.9,153.8,787.7,153.5z" style="fill: rgb(52, 127, 234);"/>
			</g>
			<g>
				<path class="st3" d="M869.8,148.4c19.9-0.6,29.7,11.1,28.9,31.7c-0.1,1.4-0.1,2.7-0.2,4.1c-6.4,0.1-12.8,0.3-19.2,0.4&#10;&#9;&#9;&#9;&#9;&#9;c0.1-1.8,0.1-3.6,0.2-5.3c0.3-9.2-3.3-12.6-9.8-12.4c-6.5,0.2-10.3,3.8-10.6,13c-0.8,26.4,38.7,30.3,37.2,67.3&#10;&#9;&#9;&#9;&#9;&#9;c-0.8,20.6-11.4,32.6-31,33.1c-19.6,0.6-29.5-10.7-28.9-31.3c0.1-2.6,0.1-5.3,0.2-7.9c6.3-0.3,12.7-0.5,19-0.7&#10;&#9;&#9;&#9;&#9;&#9;c-0.1,3.1-0.2,6.1-0.3,9.2c-0.3,9.2,3.6,12.4,10,12.2c6.4-0.2,10.5-3.6,10.8-12.8c0.9-26.6-38.4-30.2-37.5-67&#10;&#9;&#9;&#9;&#9;&#9;C839.3,161.3,849.9,149.1,869.8,148.4z" style="fill: rgb(52, 127, 234);"/>
			</g>
		</g>
	</g>
	<g>
		
			<path d="M 840 369.799988 H 1351.399994 V 381.899988 H 840 V 369.799988 Z" transform="matrix(8.183318e-02 -0.9966 0.9966 8.183318e-02 631.4902 1437.1022)" class="st4" style="fill: rgb(65, 65, 84);"/>
	</g>
	<g>
		
			<path d="M 298.399994 120.099998 H 310.499994 V 631.499992 H 298.399994 V 120.099998 Z" transform="matrix(0.9966 -8.230564e-02 8.230564e-02 0.9966 -29.8991 26.3294)" class="st4" style="fill: rgb(65, 65, 84);"/>
	</g>
	<g>
		<g>
			<g>
				<path class="st5" d="M761,713.7v-18.1c36.2,0,71.3-24.9,83-48l16.2,8.2C845.7,684.2,804.6,713.7,761,713.7z" style="fill: rgb(218, 218, 242);"/>
			</g>
			<g>
				<path class="st5" d="M999.3,676.1c-3.3,0-6.6-0.2-9.7-0.7c-13.5-2.2-23.9-9.1-29.2-19.6l16.2-8.2c2.7,5.3,8,8.6,15.9,9.9&#10;&#9;&#9;&#9;&#9;&#9;c25.3,4.1,57.1-14.4,76-33.2l12.8,12.8C1057,661.3,1025.3,676.1,999.3,676.1z" style="fill: rgb(218, 218, 242);"/>
			</g>
		</g>
		<g>
			
				<path d="M 1093.700048 630.700012 A 18.9 18.5 0 0 1 1074.800049 649.200012 A 18.9 18.5 0 0 1 1055.900049 630.700012 A 18.9 18.5 0 0 1 1074.800049 612.200012 A 18.9 18.5 0 0 1 1093.700048 630.700012 Z" transform="matrix(0.5354 -0.8446 0.8446 0.5354 -33.3362 1200.741)" class="st6" style="fill: rgb(255, 211, 174);"/>
		</g>
	</g>
	<g>
		<g>
			<g>
				<path class="st5" d="M639.3,713.7c-43.7,0-84.7-29.5-99.1-57.9l16.2-8.2c11.7,23.1,46.7,48,83,48V713.7z" style="fill: rgb(218, 218, 242);"/>
			</g>
			<g>
				<path class="st5" d="M401,676.1c-26,0-57.7-14.8-81.9-39l12.8-12.8c18.8,18.8,50.6,37.3,76,33.2c7.8-1.3,13.2-4.6,15.9-9.9&#10;&#9;&#9;&#9;&#9;&#9;l16.2,8.2c-5.3,10.5-15.7,17.4-29.2,19.6C407.6,675.9,404.3,676.1,401,676.1z" style="fill: rgb(218, 218, 242);"/>
			</g>
		</g>
		<g>
			
				<path d="M 344 630.700012 A 18.5 18.9 0 0 1 325.5 649.600012 A 18.5 18.9 0 0 1 307 630.700012 A 18.5 18.9 0 0 1 325.5 611.800013 A 18.5 18.9 0 0 1 344 630.700012 Z" transform="matrix(0.8446 -0.5354 0.5354 0.8446 -287.0967 272.2725)" class="st6" style="fill: rgb(255, 211, 174);"/>
		</g>
	</g>
	<path d="M 1054.600006 852.799988 A 354.399994 16.1 0 0 1 700.200012 868.899988 A 354.399994 16.1 0 0 1 345.800018 852.799988 A 354.399994 16.1 0 0 1 700.200012 836.699987 A 354.399994 16.1 0 0 1 1054.600006 852.799988 Z" class="st7" style="fill: rgb(61, 156, 163);"/>
	<g>
		<g>
			<path d="M 621.5 630.299988 H 778.5 V 755.899986 H 621.5 V 630.299988 Z" class="st2" style="fill: rgb(255, 255, 255);"/>
		</g>
		<g>
			<path d="M 700 630.2999877929688 L 648.5 630.2999877929688 L 687.2000122070312 659 L 700 636.2999877929688 L 712.7999877929688 659 L 751.5 630.2999877929688 Z" class="st5" style="fill: rgb(218, 218, 242);"/>
		</g>
		<g>
			<g>
				<path d="M 708.5999755859375 640.7999877929688 L 700 630.7000122070312 L 691.4000244140625 640.7999877929688 L 681.4000244140625 703.4000244140625 L 700 721.5999755859375 L 718.5999755859375 703.4000244140625 Z" class="st8" style="fill: rgb(252, 66, 101);"/>
			</g>
		</g>
		<g>
			<path d="M 700 630.2999877929688 L 659.5 630.2999877929688 L 689.5 652.9000244140625 L 700 631.2999877929688 L 710.5 652.9000244140625 L 740.5 630.2999877929688 Z" class="st2" style="fill: rgb(255, 255, 255);"/>
		</g>
		<g>
			<g>
				<path class="st9" d="M633.2,597.6h-12.3c-6.8,0-12.3-5.5-12.3-12.3v0c0-6.8,5.5-12.3,12.3-12.3h12.3V597.6z" style="fill: rgb(249, 178, 125);"/>
			</g>
			<g>
				<path class="st9" d="M766.8,597.6h12.3c6.8,0,12.3-5.5,12.3-12.3v0c0-6.8-5.5-12.3-12.3-12.3h-12.3V597.6z" style="fill: rgb(249, 178, 125);"/>
			</g>
		</g>
		<g>
			<path class="st6" d="M778.5,630.3h-157V585c0-43.3,35.1-78.5,78.5-78.5h0c43.3,0,78.5,35.1,78.5,78.5V630.3z" style="fill: rgb(255, 211, 174);"/>
		</g>
		<g>
			<path class="st10" d="M621.5,585c3.1-18.6,27.4-26,36.6-46.5c18.3,16.2,86.2,21.7,103.6,17c4.5,12.2,15.1,24.1,16.8,29.5&#10;&#9;&#9;&#9;&#9;c7.1-55.1-65.7-106.8-121-69.8C643,514.8,621.5,551.9,621.5,585z" style="fill: rgb(72, 72, 76);"/>
		</g>
		<g>
			<path class="st4" d="M633,752.4c5.5,17.1,33.5,30.1,67.1,30.1s61.6-13,67.1-30.1H633z" style="fill: rgb(65, 65, 84);"/>
		</g>
		<g>
			<g>
				<path class="st4" d="M550.8,713.7v-18.1c36.2,0,71.3-24.9,83-48l16.2,8.2C635.6,684.2,594.5,713.7,550.8,713.7z" style="fill: rgb(65, 65, 84);"/>
			</g>
			<g>
				<path class="st4" d="M849.4,713.7c-43.7,0-84.7-29.5-99.1-57.9l16.2-8.2c11.7,23.1,46.7,48,83,48V713.7z" style="fill: rgb(65, 65, 84);"/>
			</g>
		</g>
		<g>
			<g>
				<path d="M 746.4000244140625 630.2999877929688 L 700.0999755859375 690.7000122070312 L 653.7999877929688 630.2999877929688 L 621.5 630.2999877929688 L 621.5 755.9000244140625 L 700 755.9000244140625 L 700.2000122070312 755.9000244140625 L 778.7000122070312 755.9000244140625 L 778.7000122070312 630.2999877929688 Z" class="st11" style="fill: rgb(85, 85, 99);"/>
			</g>
			<g>
				<g>
					<path d="M 705.9 699.799988 A 5.9 5.9 0 0 1 700 705.699988 A 5.9 5.9 0 0 1 694.1 699.799988 A 5.9 5.9 0 0 1 700 693.899988 A 5.9 5.9 0 0 1 705.9 699.799988 Z" class="st12" style="fill: rgb(163, 163, 193);"/>
				</g>
				<g>
					<path d="M 705.9 716.700012 A 5.9 5.9 0 0 1 700 722.600012 A 5.9 5.9 0 0 1 694.1 716.700012 A 5.9 5.9 0 0 1 700 710.800012 A 5.9 5.9 0 0 1 705.9 716.700012 Z" class="st12" style="fill: rgb(163, 163, 193);"/>
				</g>
				<g>
					<path d="M 705.9 733.599976 A 5.9 5.9 0 0 1 700 739.499976 A 5.9 5.9 0 0 1 694.1 733.599976 A 5.9 5.9 0 0 1 700 727.699975 A 5.9 5.9 0 0 1 705.9 733.599976 Z" class="st12" style="fill: rgb(163, 163, 193);"/>
				</g>
			</g>
		</g>
		<g>
			<g>
				<path class="st4" d="M673.5,772.6v64.6h-10.6c-6,0-10.9,4.9-10.9,10.9v4.7c9,0,17.5,0,37.1,0c0-7.2,0-71.8,0-80.2H673.5z" style="fill: rgb(65, 65, 84);"/>
			</g>
			<g>
				<path class="st4" d="M726.7,772.6v64.6h10.6c6,0,10.9,4.9,10.9,10.9v4.7c-9,0-17.5,0-37.1,0c0-7.2,0-71.8,0-80.2H726.7z" style="fill: rgb(65, 65, 84);"/>
			</g>
		</g>
	</g>
	<g>
		<g>
			<path class="st4" d="M422.9,752.4c5.5,17.1,33.5,30.1,67.1,30.1s61.6-13,67.1-30.1H422.9z" style="fill: rgb(65, 65, 84);"/>
		</g>
		<g>
			<path d="M 411.399994 630.299988 H 568.399994 V 755.899986 H 411.399994 V 630.299988 Z" class="st2" style="fill: rgb(255, 255, 255);"/>
		</g>
		<g>
			<path d="M 489.8999938964844 630.2999877929688 L 438.3999938964844 630.2999877929688 L 477.1000061035156 659 L 489.8999938964844 636.2999877929688 L 502.70001220703125 659 L 541.4000244140625 630.2999877929688 Z" class="st5" style="fill: rgb(218, 218, 242);"/>
		</g>
		<g>
			<g>
				<path d="M 498.5 640.7999877929688 L 489.8999938964844 630.7000122070312 L 481.29998779296875 640.7999877929688 L 471.29998779296875 703.4000244140625 L 489.8999938964844 721.5999755859375 L 508.5 703.4000244140625 Z" class="st11" style="fill: rgb(85, 85, 99);"/>
			</g>
		</g>
		<g>
			<path d="M 489.8999938964844 630.2999877929688 L 449.3999938964844 630.2999877929688 L 479.29998779296875 652.9000244140625 L 489.8999938964844 631.2999877929688 L 500.3999938964844 652.9000244140625 L 530.2999877929688 630.2999877929688 Z" class="st2" style="fill: rgb(255, 255, 255);"/>
		</g>
		<g>
			<g>
				<path class="st9" d="M423,597.6h-12.3c-6.8,0-12.3-5.5-12.3-12.3v0c0-6.8,5.5-12.3,12.3-12.3H423V597.6z" style="fill: rgb(249, 178, 125);"/>
			</g>
			<g>
				<path class="st9" d="M556.7,597.6h12.3c6.8,0,12.3-5.5,12.3-12.3v0c0-6.8-5.5-12.3-12.3-12.3h-12.3V597.6z" style="fill: rgb(249, 178, 125);"/>
			</g>
		</g>
		<g>
			<path class="st6" d="M568.4,630.3h-157V585c0-43.3,35.1-78.5,78.5-78.5h0c43.3,0,78.5,35.1,78.5,78.5V630.3z" style="fill: rgb(255, 211, 174);"/>
		</g>
		<g>
			<path class="st10" d="M411.4,585c3.1-18.6,24.4-20.6,33.7-41.1c10.8,9.6,49.5,16.1,77.5,15.1c-6.6-1.8-15.2-5.8-16.6-8.6&#10;&#9;&#9;&#9;&#9;c12.4,3.8,52.9,0.9,62.3,34.7c7.1-55.1-65.7-106.8-121-69.8C432.9,514.8,411.4,551.9,411.4,585z" style="fill: rgb(72, 72, 76);"/>
		</g>
		<g>
			<g>
				<path class="st4" d="M463.4,772.6v64.6h-10.6c-6,0-10.9,4.9-10.9,10.9v4.7c9,0,17.5,0,37.1,0c0-7.2,0-71.8,0-80.2H463.4z" style="fill: rgb(65, 65, 84);"/>
			</g>
			<g>
				<path class="st4" d="M516.6,772.6v64.6h10.6c6,0,10.9,4.9,10.9,10.9v4.7c-9,0-17.5,0-37.1,0c0-7.2,0-71.8,0-80.2H516.6z" style="fill: rgb(65, 65, 84);"/>
			</g>
		</g>
	</g>
	<g>
		<path class="st4" d="M996.4,557c-3.2-41.3-43.9-67.5-86.3-67.5c-42.3,0-83.1,26.2-86.3,67.5c-3.1,40.5-8.3,74.6-21.3,87.6&#10;&#9;&#9;&#9;c22.2,0,107.6-3.1,107.6-3.1s85.4,3.1,107.6,3.1C1004.7,631.6,999.5,597.5,996.4,557z" style="fill: rgb(65, 65, 84);"/>
	</g>
	<g>
		<g>
			<path d="M 984.9000244140625 741.0999755859375 L 910.2000122070312 741.0999755859375 L 910 741.0999755859375 L 835.2999877929688 741.0999755859375 L 827 787.7000122070312 L 910 787.7000122070312 L 910.2000122070312 787.7000122070312 L 993.2000122070312 787.7000122070312 Z" class="st4" style="fill: rgb(65, 65, 84);"/>
		</g>
		<g>
			<path d="M 831.599976 630.299988 H 988.599976 V 755.899986 H 831.599976 V 630.299988 Z" class="st2" style="fill: rgb(255, 255, 255);"/>
		</g>
		<g>
			<path d="M 910.0999755859375 630.2999877929688 L 858.5999755859375 630.2999877929688 L 897.2999877929688 659 L 910.0999755859375 636.2999877929688 L 922.9000244140625 659 L 961.5999755859375 630.2999877929688 Z" class="st5" style="fill: rgb(218, 218, 242);"/>
		</g>
		<g>
			<path d="M 910.0999755859375 630.2999877929688 L 869.7000122070312 630.2999877929688 L 899.5999755859375 652.9000244140625 L 910.0999755859375 631.2999877929688 L 920.5999755859375 652.9000244140625 L 950.5999755859375 630.2999877929688 Z" class="st2" style="fill: rgb(255, 255, 255);"/>
		</g>
		<g>
			<g>
				<path class="st9" d="M843.3,597.6h-12.3c-6.8,0-12.3-5.5-12.3-12.3v0c0-6.8,5.5-12.3,12.3-12.3h12.3V597.6z" style="fill: rgb(249, 178, 125);"/>
			</g>
			<g>
				<path class="st9" d="M977,597.6h12.3c6.8,0,12.3-5.5,12.3-12.3v0c0-6.8-5.5-12.3-12.3-12.3H977V597.6z" style="fill: rgb(249, 178, 125);"/>
			</g>
		</g>
		<g>
			<path class="st6" d="M988.6,630.3h-157V585c0-43.3,35.1-78.5,78.5-78.5h0c43.3,0,78.5,35.1,78.5,78.5V630.3z" style="fill: rgb(255, 211, 174);"/>
		</g>
		<g>
			<g>
				<path class="st4" d="M883.6,772.6v64.6H873c-6,0-10.9,4.9-10.9,10.9v4.7c9,0,17.5,0,37.1,0c0-7.2,0-71.8,0-80.2H883.6z" style="fill: rgb(65, 65, 84);"/>
			</g>
			<g>
				<path class="st4" d="M936.9,772.6v64.6h10.6c6,0,10.9,4.9,10.9,10.9v4.7c-9,0-17.5,0-37.1,0c0-7.2,0-71.8,0-80.2H936.9z" style="fill: rgb(65, 65, 84);"/>
			</g>
		</g>
	</g>
	<g>
		<path class="st4" d="M910.1,500.9c-46.3,0-77.8,40.3-77.8,63c13.9,1.6,68.4-16.2,77.8-33.2c9.4,17,63.9,34.8,77.8,33.2&#10;&#9;&#9;&#9;C987.9,541.3,956.5,500.9,910.1,500.9z" style="fill: rgb(65, 65, 84);"/>
	</g>
	<g>
		<g>
			<path d="M 915.999976 676.099976 A 5.9 5.9 0 0 1 910.099976 681.999976 A 5.9 5.9 0 0 1 904.199975 676.099976 A 5.9 5.9 0 0 1 910.099976 670.199975 A 5.9 5.9 0 0 1 915.999976 676.099976 Z" class="st12" style="fill: rgb(163, 163, 193);"/>
		</g>
		<g>
			<path d="M 915.999976 693.099976 A 5.9 5.9 0 0 1 910.099976 698.999976 A 5.9 5.9 0 0 1 904.199975 693.099976 A 5.9 5.9 0 0 1 910.099976 687.199975 A 5.9 5.9 0 0 1 915.999976 693.099976 Z" class="st12" style="fill: rgb(163, 163, 193);"/>
		</g>
		<g>
			<path d="M 915.999976 710 A 5.9 5.9 0 0 1 910.099976 715.9 A 5.9 5.9 0 0 1 904.199975 710 A 5.9 5.9 0 0 1 910.099976 704.1 A 5.9 5.9 0 0 1 915.999976 710 Z" class="st12" style="fill: rgb(163, 163, 193);"/>
		</g>
	</g>
	<g>
		<path class="st13" d="M469.4,610.5c0,8.6,9.2,15.6,20.5,15.6c11.3,0,20.5-7,20.5-15.6H469.4z" style="fill: rgb(178, 22, 55);"/>
		<g>
			<path class="st2" d="M469.4,610.5C469.4,610.5,469.4,610.5,469.4,610.5c0,3,2.5,5.3,5.5,5.3h30c2.9,0,5.4-2.3,5.5-5.2l0-0.1&#10;&#9;&#9;&#9;&#9;H469.4z" style="fill: rgb(255, 255, 255);"/>
		</g>
		<g>
			<path class="st14" d="M504,621.8c-5.2-2.7-11.7-2.6-14.1-1.2c-2.4-1.4-8.9-1.5-14.1,1.2c3.7,2.7,8.6,4.3,14.1,4.3&#10;&#9;&#9;&#9;&#9;C495.4,626.1,500.3,624.4,504,621.8z" style="fill: rgb(255, 161, 183);"/>
		</g>
	</g>
	<g>
		<path class="st13" d="M889.6,610.5c0,8.6,9.2,15.6,20.5,15.6c11.3,0,20.5-7,20.5-15.6H889.6z" style="fill: rgb(178, 22, 55);"/>
		<g>
			<path class="st2" d="M889.6,610.5C889.6,610.5,889.6,610.5,889.6,610.5c0,3,2.5,5.3,5.5,5.3h30c2.9,0,5.4-2.3,5.5-5.2l0-0.1&#10;&#9;&#9;&#9;&#9;H889.6z" style="fill: rgb(255, 255, 255);"/>
		</g>
		<g>
			<path class="st14" d="M924.2,621.8c-5.2-2.7-11.7-2.6-14.1-1.2c-2.4-1.4-8.9-1.5-14.1,1.2c3.7,2.7,8.6,4.3,14.1,4.3&#10;&#9;&#9;&#9;&#9;C915.6,626.1,920.5,624.4,924.2,621.8z" style="fill: rgb(255, 161, 183);"/>
		</g>
	</g>
	<g>
		<g>
			<path class="st13" d="M679.5,610.5c0,8.6,9.2,15.6,20.5,15.6c11.3,0,20.5-7,20.5-15.6H679.5z" style="fill: rgb(178, 22, 55);"/>
			<g>
				<path class="st2" d="M679.5,610.5C679.5,610.5,679.5,610.5,679.5,610.5c0,3,2.5,5.3,5.5,5.3h30c2.9,0,5.4-2.3,5.5-5.2l0-0.1&#10;&#9;&#9;&#9;&#9;&#9;H679.5z" style="fill: rgb(255, 255, 255);"/>
			</g>
			<g>
				<path class="st14" d="M714.1,621.8c-5.2-2.7-11.7-2.6-14.1-1.2c-2.4-1.4-8.9-1.5-14.1,1.2c3.7,2.7,8.6,4.3,14.1,4.3&#10;&#9;&#9;&#9;&#9;&#9;C705.5,626.1,710.4,624.4,714.1,621.8z" style="fill: rgb(255, 161, 183);"/>
			</g>
		</g>
		<path class="st10" d="M712.9,607.8h-25.8c-1.5,0-2.6-1.2-2.6-2.6l0,0c0-1.5,1.2-2.6,2.6-2.6h25.8c1.5,0,2.6,1.2,2.6,2.6l0,0&#10;&#9;&#9;&#9;C715.5,606.6,714.4,607.8,712.9,607.8z" style="fill: rgb(72, 72, 76);"/>
	</g>
</g></g></svg>